<svg xmlns="http://www.w3.org/2000/svg" width="1128" height="376" viewBox="0 0 1128 376">
  
  <defs>
    <linearGradient id="accent" x1="0%" y1="0%" x2="100%" y2="100%">
      <stop offset="0%" stop-color="#86efac"/><stop offset="100%" stop-color="#22c55e"/>
    </linearGradient>
    <radialGradient id="g1" cx="6%" cy="10%" r="62%">
      <stop offset="0%" stop-color="#86efac" stop-opacity="0.17"/><stop offset="100%" stop-color="#86efac" stop-opacity="0"/>
    </radialGradient>
    <radialGradient id="g2" cx="96%" cy="96%" r="60%">
      <stop offset="0%" stop-color="#2dd4bf" stop-opacity="0.15"/><stop offset="100%" stop-color="#2dd4bf" stop-opacity="0"/>
    </radialGradient>
    <!-- Matches the site's own section::before dot-grid background-image
         (style.css): 1.5px radius dots on a 28x28 grid. -->
    <pattern id="dots" width="28" height="28" patternUnits="userSpaceOnUse">
      <circle cx="1.5" cy="1.5" r="1.5" fill="rgba(247,243,236,0.09)"/>
    </pattern>
  </defs>
  <rect width="1128" height="376" fill="#0b0a10"/>
  <rect width="1128" height="376" fill="url(#g1)"/>
  <rect width="1128" height="376" fill="url(#g2)"/>
  <rect width="1128" height="6" fill="url(#accent)"/>
  <g font-family="Segoe UI, Arial, sans-serif">
    <text x="262" y="108" fill="#f7f3ec" font-size="24" font-weight="700" letter-spacing="5">ELEVVEN11 STUDIO</text>
    <text x="262" y="164" fill="#f7f3ec" font-size="35" font-weight="700">Simple Websites.</text>
    <text x="262" y="208" fill="url(#accent)" font-size="35" font-weight="700">No Monthly Hosting Fee.</text>
    <text x="262" y="248" fill="#a79f95" font-size="18">For small businesses and freelancers in Nigeria.</text>
    <g><rect x="262" y="270" width="146" height="33.6" rx="16.8"
        fill="rgba(247,243,236,0.06)" stroke="rgba(247,243,236,0.17)"/>
      <text x="335" y="292.72" fill="#f7f3ec" font-size="16" text-anchor="middle">42 live demos</text></g><g><rect x="419.2" y="270" width="146" height="33.6" rx="16.8"
        fill="rgba(247,243,236,0.06)" stroke="rgba(247,243,236,0.17)"/>
      <text x="492.2" y="292.72" fill="#f7f3ec" font-size="16" text-anchor="middle">14 industries</text></g><g><rect x="576.4" y="270" width="138" height="33.6" rx="16.8"
        fill="rgba(247,243,236,0.06)" stroke="rgba(247,243,236,0.17)"/>
      <text x="645.4" y="292.72" fill="#f7f3ec" font-size="16" text-anchor="middle">From ₦50,000</text></g>
    <text x="262" y="348" fill="#7a7268" font-size="16">elevven11studio.github.io</text>
  </g>
  
  <g>
    <rect x="726" y="62" width="356" height="252" rx="8.743859649122808" fill="#15121d" stroke="rgba(247,243,236,0.14)"/>
    <path d="M726 70.74385964912281 a8.743859649122808 8.743859649122808 0 0 1 8.743859649122808 -8.743859649122808 h338.5122807017544 a8.743859649122808 8.743859649122808 0 0 1 8.743859649122808 8.743859649122808 v16.238596491228073 h-356 z" fill="#221d2e"/>
    <circle cx="738.4912280701755" cy="74.49122807017544" r="3.12280701754386" fill="#ff5f57"/><circle cx="749.1087719298246" cy="74.49122807017544" r="3.12280701754386" fill="#febc2e"/><circle cx="759.7263157894737" cy="74.49122807017544" r="3.12280701754386" fill="#28c840"/>
    <rect x="777.2140350877193" y="67.62105263157895" width="291.04561403508774" height="13.740350877192984" rx="6.870175438596492" fill="rgba(11,10,16,0.65)"/>
    <text x="785.9578947368421" y="77.6140350877193" font-size="7.494736842105263" fill="#8f877c">elevven11studio.github.io</text>

    <rect x="727" y="86.98245614035088" width="354" height="226.01754385964912" fill="#0b0a10"/>
    <rect x="727" y="86.98245614035088" width="354" height="1.8736842105263158" fill="url(#accent)"/>

    <rect x="739.740350877193" y="99.47368421052632" width="36.22456140350877" height="6.24561403508772" rx="3.12280701754386" fill="#f7f3ec" opacity="0.9"/>
    <rect x="937.1017543859649" y="100.72280701754386" width="18.73684210526316" height="4.371929824561404" rx="2.185964912280702" fill="rgba(247,243,236,0.28)"/><rect x="963.3333333333334" y="100.72280701754386" width="18.73684210526316" height="4.371929824561404" rx="2.185964912280702" fill="rgba(247,243,236,0.28)"/><rect x="989.5649122807018" y="100.72280701754386" width="18.73684210526316" height="4.371929824561404" rx="2.185964912280702" fill="rgba(247,243,236,0.28)"/><rect x="1015.7964912280702" y="100.72280701754386" width="18.73684210526316" height="4.371929824561404" rx="2.185964912280702" fill="rgba(247,243,236,0.28)"/>

    <rect x="739.740350877193" y="125.70526315789473" width="203.6819649122807" height="10.617543859649123" rx="5.3087719298245615" fill="#f7f3ec"/>
    <rect x="739.740350877193" y="141.94385964912283" width="256.245052631579" height="10.617543859649123" rx="5.3087719298245615" fill="url(#accent)"/>
    <rect x="739.740350877193" y="160.68070175438595" width="170.8300350877193" height="4.996491228070176" rx="2.498245614035088" fill="rgba(247,243,236,0.20)"/>
    <rect x="739.740350877193" y="169.4245614035088" width="131.4077192982456" height="4.996491228070176" rx="2.498245614035088" fill="rgba(247,243,236,0.14)"/>

    <rect x="739.740350877193" y="180.66666666666669" width="64.95438596491229" height="12.49122807017544" rx="6.24561403508772" fill="url(#accent)"/>
    <rect x="812.1894736842105" y="180.66666666666669" width="57.45964912280702" height="12.49122807017544" rx="6.24561403508772"
          fill="none" stroke="rgba(247,243,236,0.28)"/>
    
    <rect x="739.740350877193" y="196.90526315789475" width="102.84444444444445" height="46.217543859649126" rx="4.996491228070176"
          fill="rgba(247,243,236,0.05)" stroke="rgba(247,243,236,0.10)"/>
    <rect x="747.2350877192982" y="206.8982456140351" width="51.422222222222224" height="4.996491228070176" rx="2.498245614035088" fill="#86efac" opacity="0.75"/>
    <rect x="747.2350877192982" y="218.140350877193" width="80.21866666666668" height="3.7473684210526317" rx="1.8736842105263158" fill="rgba(247,243,236,0.22)"/>
    <rect x="747.2350877192982" y="226.8842105263158" width="61.70666666666666" height="3.7473684210526317" rx="1.8736842105263158" fill="rgba(247,243,236,0.16)"/>
    <rect x="852.5777777777778" y="196.90526315789475" width="102.84444444444445" height="46.217543859649126" rx="4.996491228070176"
          fill="rgba(247,243,236,0.05)" stroke="rgba(247,243,236,0.10)"/>
    <rect x="860.072514619883" y="206.8982456140351" width="51.422222222222224" height="4.996491228070176" rx="2.498245614035088" fill="#86efac" opacity="0.75"/>
    <rect x="860.072514619883" y="218.140350877193" width="80.21866666666668" height="3.7473684210526317" rx="1.8736842105263158" fill="rgba(247,243,236,0.22)"/>
    <rect x="860.072514619883" y="226.8842105263158" width="61.70666666666666" height="3.7473684210526317" rx="1.8736842105263158" fill="rgba(247,243,236,0.16)"/>
    <rect x="965.4152046783627" y="196.90526315789475" width="102.84444444444445" height="46.217543859649126" rx="4.996491228070176"
          fill="rgba(247,243,236,0.05)" stroke="rgba(247,243,236,0.10)"/>
    <rect x="972.9099415204679" y="206.8982456140351" width="51.422222222222224" height="4.996491228070176" rx="2.498245614035088" fill="#86efac" opacity="0.75"/>
    <rect x="972.9099415204679" y="218.140350877193" width="80.21866666666668" height="3.7473684210526317" rx="1.8736842105263158" fill="rgba(247,243,236,0.22)"/>
    <rect x="972.9099415204679" y="226.8842105263158" width="61.70666666666666" height="3.7473684210526317" rx="1.8736842105263158" fill="rgba(247,243,236,0.16)"/>
  </g>
</svg>